# xmcd
#
# Track frame offsets:
# 150
# 8327
# 22885
# 51777
# 69560
# 95265
# 105345
# 125167
# 138787
# 178202
# 189210
# 200030
#
# Disc length: 2823 seconds
#
#
# Revision: 0
# Processed by: cddbd v1.4PL0 Copyright (c) Steve Scherf et al.
# Submitted via: FreeRIP 2.11 
#
DISCID=960b050c
DTITLE=express - Express Outta the blue
DYEAR=1996
DGENRE=Blues
TTITLE0=yo jeans- al jarreau
TTITLE1=my jeans are too tight- gerry house
TTITLE2=shake your pants- cameo
TTITLE3=my jeans, i want them back- lauren christy
TTITLE4=blue jean blues- jeff healey band
TTITLE5=black denim trousers and motorcycle boots- the cheers
TTITLE6=blue denim- stevie nicks
TTITLE7=baby's got her blue jeans on- mel mcdaniel
TTITLE8=hot pants- james brown
TTITLE9=you make my pants want to get up and dance- dr hook
TTITLE10=blue jean bop- gen vincent and his blue caps
TTITLE11=jeans on- david dundas
EXTD=
EXTT0=
EXTT1=
EXTT2=
EXTT3=
EXTT4=
EXTT5=
EXTT6=
EXTT7=
EXTT8=
EXTT9=
EXTT10=
EXTT11=
PLAYORDER=
